# xmcd CD database file
#
# Track frame offsets:
#	150
#	13432
#	30834
#	45793
#	61272
#	81010
#	92060
#	103190
#	117444
#	133239
#
# Disc length: 1968 seconds
#
# Revision: 0
# Processed by: cddbd v1.4PL0 Copyright (c) Steve Scherf et al.
# Submitted via: CDex 1.40Release
#
DISCID=7a07ae0a
DTITLE=19th Street Red - On The Street
DYEAR=2002
DGENRE=Blues
TTITLE0=Ramblin' on My Mind
TTITLE1=Walkin' Blues
TTITLE2=Come on in My Kitchen
TTITLE3=Give me Back My Wig
TTITLE4=Have Mercy
TTITLE5=She's Gone
TTITLE6=Angel Child
TTITLE7=Preachin' the Blues
TTITLE8=Careless Love
TTITLE9=Sloppy Drunk
EXTD=YEAR: 2002 ID3G: 0
EXTT0=
EXTT1=
EXTT2=
EXTT3=
EXTT4=
EXTT5=
EXTT6=
EXTT7=
EXTT8=
EXTT9=
PLAYORDER=
